# xmcd
#
# Track frame offsets: 
#        150
#        21842
#        37292
#        58015
#        80237
#        99727
#        114677
#        143155
#        164695
#        186532
#        204557
#
# Disc length: 3058 seconds
#
# Revision: 2
# Processed by: cddbd v1.5.1PL0 Copyright (c) Steve Scherf et al.
# Submitted via: ExactAudioCopy v0.95a5
#
DISCID=ad0bf00b
DTITLE=Charles Brown - Charles Brown's Cool Christmas Blues
DYEAR=1900
DGENRE=Blues
TTITLE0=Merry Christmas Baby
TTITLE1=Santa's Blues
TTITLE2=Blue Holiday
TTITLE3=Silent Night
TTITLE4=Christmas Comes But Once A Year
TTITLE5=Please Come Home For Christmas
TTITLE6=A Song For Christmas
TTITLE7=Stay With Me
TTITLE8=To Someone That I Love
TTITLE9=Christmas In Heaven
TTITLE10=Bringing In A Brand New Year
EXTD=
EXTT0=
EXTT1=
EXTT2=
EXTT3=
EXTT4=
EXTT5=
EXTT6=
EXTT7=
EXTT8=
EXTT9=
EXTT10=
PLAYORDER=
